Coordinates
version=1
nRows=10
nColumns=33
inDegrees=yes

Units are S.I. units (second, meters, Newtons, ...)
Angles are in degrees.

endheader
time	ground_thorax_rot_x	ground_thorax_rot_y	ground_thorax_rot_z	ground_thorax_tx	ground_thorax_ty	ground_thorax_tz	clav_prot_r	clav_elev_r	scapula_abduction_r	scapula_elevation_r	scapula_upward_rot_r	scapula_winging_r	shoulder_elv_r	plane_of_elev_r	axial_rot_r	elbow_flexion_r	pro_sup_r	wrist_flex_r	wrist_dev_r	clav_prot_l	clav_elev_l	scapula_abduction_l	scapula_elevation_l	scapula_upward_rot_l	scapula_winging_l	shoulder_elv_l	plane_of_elev_l	axial_rot_l	elbow_flexion_l	pro_sup_l	wrist_flex_l	wrist_dev_l
      8.35000000	    -41.58548537	     -7.55791386	      1.09675116	    -57.93742533	    802.35618774	      9.64912300	      6.25727752	    -45.00000000	     45.00000000	    -45.00000000	    -12.26465820	  -1530.79601242	  -1556.91005303	    151.14383017	   -104.63035540	   1810.96228067	     13.74817593	     18.23935685	     10.62309435	     16.17008907	     40.91911750	    -45.00000000	    -40.02086961	    -27.60125835	   3680.08618010	  -2981.94239719	    136.02608325	    179.99999979	   2884.67775048	     15.86981502	     13.62088246	    -17.85973432
      8.36000000	    -41.46964549	     -8.10672619	      1.54315232	    -56.59796090	    800.68000184	      9.80215245	      6.69752191	    -45.00000000	     45.00000000	    -45.00000000	    -13.11800525	  -1530.81647972	  -1557.11908634	    151.08620906	   -104.15542212	   1810.87553813	     13.50683558	     18.01096377	     10.56878894	     16.11734375	     40.61360379	    -45.00000000	    -39.79600681	    -28.43936220	   3680.17639261	  -2981.83425742	    135.80233457	    179.86255711	   2884.46728195	     16.01553115	     13.59252876	    -17.84272667
      8.37000000	    -41.26501315	     -8.23534631	      1.54056264	    -55.58940753	    799.24476147	      9.87192843	      6.65739541	    -45.00000000	     45.00000000	    -45.00000000	    -13.23500027	  -1530.65306825	  -1557.18415677	    151.21572338	   -103.80110405	   1810.65910651	     13.21987397	     17.80013148	     10.60723543	     16.01274699	     40.26893408	    -45.00000000	    -39.45867928	    -28.14770300	   3680.13622383	  -2981.95184067	    136.00753473	    179.69933853	   2884.29786926	     16.14342074	     13.60100976	    -17.82336038
      8.38000000	    -41.06560161	     -8.30681685	      1.42658718	    -54.92426195	    798.02509173	      9.85316787	      6.54192736	    -45.00000000	     45.00000000	    -45.00000000	    -13.15263222	  -1530.49369918	  -1557.13650936	    151.35891659	   -103.34448972	   1810.55018631	     12.94800379	     17.66952154	     10.71344869	     16.03306714	     39.97777857	    -45.00000000	    -39.28167507	    -27.88658045	   3680.10878880	  -2982.16467983	    136.09195194	    179.78414693	   2884.15930499	     16.30244221	     13.56016907	    -17.82896175
      8.39000000	    -40.86347658	     -8.49389482	      1.37596538	    -54.60466033	    796.98697708	      9.74411906	      6.42265975	    -45.00000000	     45.00000000	    -45.00000000	    -13.16272796	  -1530.41372338	  -1557.04810922	    151.52297415	   -102.96047604	   1810.62166153	     12.71698171	     17.62121818	     10.86430748	     16.07048090	     39.88510279	    -45.00000000	    -38.80165317	    -27.70748923	   3680.34874703	  -2982.08436637	    136.19353912	    179.91507802	   2884.08806830	     16.43078002	     13.33107577	    -17.83803100
      8.40000000	    -40.89972789	     -8.42021953	      1.13204058	    -54.63453230	    796.10405207	      9.55273527	      6.48364035	    -45.00000000	     45.00000000	    -45.00000000	    -13.09842896	  -1530.55038556	  -1557.51697911	    151.53719317	   -102.75367771	   1810.27880128	     12.52761365	     17.46312148	     10.76715114	     15.89267050	     39.96344530	    -45.00000000	    -38.89055606	    -27.55550891	   3680.26101516	  -2982.05416731	    136.17775202	    179.95948383	   2883.95173614	     16.63918733	     13.42546533	    -17.84641344
      8.41000000	    -40.73894293	     -8.46615031	      0.97952335	    -55.01400931	    795.35762956	      9.29159024	      6.37249879	    -45.00000000	     45.00000000	    -45.00000000	    -13.09026245	  -1530.43488943	  -1557.35358483	    151.71852710	   -102.48673030	   1810.24465821	     12.37686069	     17.43534803	     10.93446563	     15.96624748	     39.95070385	    -45.00000000	    -38.87034766	    -27.50441921	   3680.31130614	  -2982.26543689	    136.14710076	    179.92379699	   2883.84965058	     16.80844920	     13.23754779	    -17.85874832
      8.42000000	    -40.60075341	     -8.52082896	      0.87827908	    -55.73964889	    794.73006871	      8.97519551	      6.40976315	    -45.00000000	     45.00000000	    -45.00000000	    -13.22275175	  -1530.66465303	  -1557.41695742	    151.66100386	   -102.22753614	   1810.19011857	     12.30447268	     17.40041624	     10.95952106	     15.87926014	     39.97204311	    -45.00000000	    -38.68010537	    -27.40744305	   3680.42143262	  -2982.23431675	    136.18515335	    179.93349491	   2883.75971626	     16.90209154	     13.14466846	    -17.88276015
      8.43000000	    -40.57095603	     -8.57941517	      0.75452612	    -56.80055241	    794.20633817	      8.61311148	      6.35251112	    -45.00000000	     45.00000000	    -45.00000000	    -13.53906941	  -1530.83564691	  -1557.56672999	    151.60808504	   -102.00184783	   1810.05895885	     12.34855282	     17.37610249	     11.06085568	     15.86757121	     40.01246451	    -45.00000000	    -38.67796094	    -27.37681174	   3680.54145623	  -2982.25533423	    136.19896427	    179.80333643	   2883.67419713	     16.94121977	     13.00268410	    -17.89968598
      8.44000000	    -40.49994240	     -8.62786512	      0.65680565	    -58.18417458	    793.77381897	      8.21342651	      6.41672894	    -45.00000000	     45.00000000	    -45.00000000	    -13.99957113	  -1531.15042355	  -1557.60824925	    151.40720775	   -101.81810445	   1809.98561825	     12.48564815	     17.36714495	     11.09505498	     15.83207807	     40.01651055	    -45.00000000	    -38.57163457	    -27.32140301	   3680.71663840	  -2982.22794284	    136.26947654	    179.56520166	   2883.66309310	     16.89236193	     12.89938893	    -17.94636915
